<svg width="520" height="340" viewBox="0 0 520 340" fill="none" xmlns="http://www.w3.org/2000/svg">
<rect width="520" height="340" rx="20" fill="#F2F8FD"/>
<path d="M70 155L260 70L450 155V262H70V155Z" fill="#0F5B84"/>
<path d="M70 155L260 100L450 155V262H70V155Z" fill="#1D709A"/>
<rect x="106" y="170" width="72" height="92" rx="8" fill="#B2D7EC"/>
<rect x="224" y="170" width="72" height="92" rx="8" fill="#B2D7EC"/>
<rect x="342" y="170" width="72" height="92" rx="8" fill="#B2D7EC"/>
<rect x="136" y="192" width="18" height="18" rx="3" fill="#0F5B84"/>
<rect x="254" y="192" width="18" height="18" rx="3" fill="#0F5B84"/>
<rect x="372" y="192" width="18" height="18" rx="3" fill="#0F5B84"/>
<rect x="30" y="262" width="460" height="20" rx="10" fill="#CADFEE"/>
<circle cx="138" cy="262" r="12" fill="#093954"/>
<circle cx="382" cy="262" r="12" fill="#093954"/>
</svg>
